<svg xmlns="http://www.w3.org/2000/svg" width="511.6545" height="1204.3823" viewBox="0 0 511.6545 1204.3823"><defs><marker id="arrow-0" viewBox="0 0 10 10" refX="5" refY="5" markerUnits="userSpaceOnUse" markerWidth="8" markerHeight="8" orient="auto"><path d="M 0 0 L 10 5 L 0 10 z" fill="#6d6d6d" stroke="#6d6d6d" stroke-width="1" stroke-dasharray="1,0"/></marker><marker id="arrow-start-0" viewBox="0 0 10 10" refX="4.5" refY="5" markerUnits="userSpaceOnUse" markerWidth="8" markerHeight="8" orient="auto"><path d="M 0 5 L 10 10 L 10 0 z" fill="#6d6d6d" stroke="#6d6d6d" stroke-width="1" stroke-dasharray="1,0"/></marker></defs><path id="edge-0" class="edgePath" data-edge-id="edge-0" d="M 247.580,49.000 L 247.580,90.000" fill="none" stroke="#6d6d6d" stroke-width="2"    stroke-linecap="round" stroke-linejoin="round" /><g transform="translate(247.58 90.00) rotate(90.00)"><polygon points="0,0 -7.50,3.90 -7.50,-3.90" fill="#6d6d6d" stroke="#6d6d6d" stroke-width="2" stroke-linejoin="round" stroke-linecap="round"/></g><path id="edge-1" class="edgePath" data-edge-id="edge-1" d="M 247.580,228.472 L 247.580,235.402 Q 247.580,241.072 253.250,241.072 L 284.960,241.072 Q 294.960,241.072 294.960,251.072 L 294.960,787.660 Q 294.960,797.660 284.960,797.660 L 263.580,797.660" fill="none" stroke="#6d6d6d" stroke-width="2"    stroke-linecap="round" stroke-linejoin="round" /><g transform="translate(263.58 797.66) rotate(180.00)"><polygon points="0,0 -7.50,3.90 -7.50,-3.90" fill="#6d6d6d" stroke="#6d6d6d" stroke-width="2" stroke-linejoin="round" stroke-linecap="round"/></g><rect data-edge-id="edge-1" data-label-kind="center" x="221.06" y="243.07" width="62.76" height="28.40" rx="2" ry="2" fill="#ffffff" fill-opacity="0.00" stroke="#cccccc" stroke-opacity="0.00" stroke-width="0.8"/><g class="edgeLabel" data-edge-id="edge-1" data-label-kind="center"><text x="252.44" y="260.77" text-anchor="middle" font-family="Geist" font-size="14" fill="#222222"><tspan x="252.44" dy="0.00">urgent</tspan></text></g><path id="edge-2" class="edgePath" data-edge-id="edge-2" d="M 231.580,212.472 L 231.580,219.402 Q 231.580,225.072 225.910,225.072 L 133.580,225.072 Q 123.580,225.072 123.580,235.072 L 123.580,947.101 Q 123.580,957.101 133.580,957.101 L 231.580,957.101" fill="none" stroke="#6d6d6d" stroke-width="2"    stroke-linecap="round" stroke-linejoin="round" /><g transform="translate(231.58 957.10) rotate(0.00)"><polygon points="0,0 -7.50,3.90 -7.50,-3.90" fill="#6d6d6d" stroke="#6d6d6d" stroke-width="2" stroke-linejoin="round" stroke-linecap="round"/></g><rect data-edge-id="edge-2" data-label-kind="center" x="125.48" y="703.91" width="62.76" height="28.40" rx="2" ry="2" fill="#ffffff" fill-opacity="0.00" stroke="#cccccc" stroke-opacity="0.00" stroke-width="0.8"/><g class="edgeLabel" data-edge-id="edge-2" data-label-kind="center"><text x="156.86" y="721.61" text-anchor="middle" font-family="Geist" font-size="14" fill="#222222"><tspan x="156.86" dy="0.00">normal</tspan></text></g><path id="edge-3" class="edgePath" data-edge-id="edge-3" d="M 231.580,212.472 L 231.580,219.402 Q 231.580,225.072 225.910,225.072 L 111.980,225.072 Q 101.980,225.072 101.980,235.072 L 101.980,1106.542 Q 101.980,1116.542 111.980,1116.542 L 231.580,1116.542" fill="none" stroke="#6d6d6d" stroke-width="2"    stroke-linecap="round" stroke-linejoin="round" /><g transform="translate(231.58 1116.54) rotate(0.00)"><polygon points="0,0 -7.50,3.90 -7.50,-3.90" fill="#6d6d6d" stroke="#6d6d6d" stroke-width="2" stroke-linejoin="round" stroke-linecap="round"/></g><rect data-edge-id="edge-3" data-label-kind="center" x="58.52" y="1109.77" width="44.84" height="28.40" rx="2" ry="2" fill="#ffffff" fill-opacity="0.95" stroke="#cccccc" stroke-opacity="0.45" stroke-width="0.8"/><g class="edgeLabel" data-edge-id="edge-3" data-label-kind="center"><text x="80.94" y="1127.47" text-anchor="middle" font-family="Geist" font-size="14" fill="#222222"><tspan x="80.94" dy="0.00">bulk</tspan></text></g><path id="edge-4" class="edgePath" data-edge-id="edge-4" d="M 279.580,838.660 L 279.580,919.021 Q 279.580,929.021 289.580,929.021 L 342.281,929.021 Q 352.281,929.021 352.281,939.021 L 352.281,1097.762 Q 352.281,1107.762 342.281,1107.762 L 330.532,1107.762 Q 321.262,1107.762 321.262,1117.032 L 321.262,1128.362" fill="none" stroke="#6d6d6d" stroke-width="2"    stroke-linecap="round" stroke-linejoin="round" /><g transform="translate(321.26 1128.36) rotate(90.00)"><polygon points="0,0 -7.50,3.90 -7.50,-3.90" fill="#6d6d6d" stroke="#6d6d6d" stroke-width="2" stroke-linejoin="round" stroke-linecap="round"/></g><rect data-edge-id="edge-4" data-label-kind="center" x="281.58" y="894.20" width="71.72" height="28.40" rx="2" ry="2" fill="#ffffff" fill-opacity="0.00" stroke="#cccccc" stroke-opacity="0.00" stroke-width="0.8"/><g class="edgeLabel" data-edge-id="edge-4" data-label-kind="center"><text x="317.44" y="911.90" text-anchor="middle" font-family="Geist" font-size="14" fill="#222222"><tspan x="317.44" dy="0.00">success</tspan></text></g><path id="edge-5" class="edgePath" data-edge-id="edge-5" d="M 279.580,998.101 L 279.580,1005.031 Q 279.580,1010.701 285.250,1010.701 L 337.244,1010.701 Q 347.244,1010.701 347.244,1020.701 L 347.244,1119.337 Q 347.244,1128.362 338.219,1128.362 L 327.189,1128.362" fill="none" stroke="#6d6d6d" stroke-width="2"    stroke-linecap="round" stroke-linejoin="round" /><g transform="translate(327.19 1128.36) rotate(180.00)"><polygon points="0,0 -7.50,3.90 -7.50,-3.90" fill="#6d6d6d" stroke="#6d6d6d" stroke-width="2" stroke-linejoin="round" stroke-linecap="round"/></g><rect data-edge-id="edge-5" data-label-kind="center" x="273.52" y="1020.26" width="71.72" height="28.40" rx="2" ry="2" fill="#ffffff" fill-opacity="0.00" stroke="#cccccc" stroke-opacity="0.00" stroke-width="0.8"/><g class="edgeLabel" data-edge-id="edge-5" data-label-kind="center"><text x="309.38" y="1037.96" text-anchor="middle" font-family="Geist" font-size="14" fill="#222222"><tspan x="309.38" dy="0.00">success</tspan></text></g><path id="edge-6" class="edgePath" data-edge-id="edge-6" d="M 295.940,1157.542 L 295.940,1170.142 L 305.140,1115.762 L 305.140,1128.362" fill="none" stroke="#6d6d6d" stroke-width="2"    stroke-linecap="round" stroke-linejoin="round" /><g transform="translate(305.14 1128.36) rotate(90.00)"><polygon points="0,0 -7.50,3.90 -7.50,-3.90" fill="#6d6d6d" stroke="#6d6d6d" stroke-width="2" stroke-linejoin="round" stroke-linecap="round"/></g><rect data-edge-id="edge-6" data-label-kind="center" x="222.32" y="1167.98" width="71.72" height="28.40" rx="2" ry="2" fill="#ffffff" fill-opacity="0.00" stroke="#cccccc" stroke-opacity="0.00" stroke-width="0.8"/><g class="edgeLabel" data-edge-id="edge-6" data-label-kind="center"><text x="258.18" y="1185.68" text-anchor="middle" font-family="Geist" font-size="14" fill="#222222"><tspan x="258.18" dy="0.00">success</tspan></text></g><path id="edge-7" class="edgePath" data-edge-id="edge-7" d="M 198.220,818.160 L 188.620,818.160 L 200.220,818.160 L 194.720,818.160 Q 190.220,818.160 190.220,813.660 L 190.220,799.660 Q 190.220,789.660 200.220,789.660 L 298.820,789.660 Q 304.940,789.660 304.940,783.540 L 304.940,782.180 Q 304.940,776.060 298.820,776.060 L 200.220,776.060 L 237.860,776.060 Q 247.580,776.060 247.580,785.780 L 247.580,797.660" fill="none" stroke="#6d6d6d" stroke-width="2"    stroke-linecap="round" stroke-linejoin="round" /><g transform="translate(247.58 797.66) rotate(90.00)"><polygon points="0,0 -7.50,3.90 -7.50,-3.90" fill="#6d6d6d" stroke="#6d6d6d" stroke-width="2" stroke-linejoin="round" stroke-linecap="round"/></g><rect data-edge-id="edge-7" data-label-kind="center" x="183.40" y="745.66" width="170.28" height="28.40" rx="2" ry="2" fill="#ffffff" fill-opacity="0.00" stroke="#cccccc" stroke-opacity="0.00" stroke-width="0.8"/><g class="edgeLabel" data-edge-id="edge-7" data-label-kind="center"><text x="268.54" y="763.36" text-anchor="middle" font-family="Geist" font-size="14" fill="#222222"><tspan x="268.54" dy="0.00">retry with backoff</tspan></text></g><path id="edge-8" class="edgePath" data-edge-id="edge-8" d="M 296.940,977.601 L 306.540,977.601 L 294.540,977.601 L 300.260,977.601 Q 304.940,977.601 304.940,982.281 L 304.940,996.101 Q 304.940,1006.101 294.940,1006.101 L 200.220,1006.101 Q 190.220,1006.101 190.220,996.101 L 190.220,945.501 Q 190.220,935.501 200.220,935.501 L 294.540,935.501 L 257.300,935.501 Q 247.580,935.501 247.580,945.221 L 247.580,957.101" fill="none" stroke="#6d6d6d" stroke-width="2"    stroke-linecap="round" stroke-linejoin="round" /><g transform="translate(247.58 957.10) rotate(90.00)"><polygon points="0,0 -7.50,3.90 -7.50,-3.90" fill="#6d6d6d" stroke="#6d6d6d" stroke-width="2" stroke-linejoin="round" stroke-linecap="round"/></g><rect data-edge-id="edge-8" data-label-kind="center" x="62.76" y="906.84" width="170.28" height="28.40" rx="2" ry="2" fill="#ffffff" fill-opacity="0.95" stroke="#cccccc" stroke-opacity="0.45" stroke-width="0.8"/><g class="edgeLabel" data-edge-id="edge-8" data-label-kind="center"><text x="147.90" y="924.54" text-anchor="middle" font-family="Geist" font-size="14" fill="#222222"><tspan x="147.90" dy="0.00">retry with backoff</tspan></text></g><path id="edge-9" class="edgePath" data-edge-id="edge-9" d="M 198.220,1137.042 L 188.620,1137.042 L 189.500,1137.042 Q 190.220,1137.042 190.220,1136.322 L 190.220,1118.542 Q 190.220,1108.542 200.220,1108.542 L 298.820,1108.542 Q 304.940,1108.542 304.940,1102.422 L 304.940,1101.062 Q 304.940,1094.942 298.820,1094.942 L 232.220,1094.942 L 240.668,1094.942 Q 247.580,1094.942 247.580,1101.854 L 247.580,1116.542" fill="none" stroke="#6d6d6d" stroke-width="2"    stroke-linecap="round" stroke-linejoin="round" /><g transform="translate(247.58 1116.54) rotate(90.00)"><polygon points="0,0 -7.50,3.90 -7.50,-3.90" fill="#6d6d6d" stroke="#6d6d6d" stroke-width="2" stroke-linejoin="round" stroke-linecap="round"/></g><rect data-edge-id="edge-9" data-label-kind="center" x="86.73" y="1068.58" width="170.28" height="28.40" rx="2" ry="2" fill="#ffffff" fill-opacity="0.95" stroke="#cccccc" stroke-opacity="0.45" stroke-width="0.8"/><g class="edgeLabel" data-edge-id="edge-9" data-label-kind="center"><text x="171.87" y="1086.28" text-anchor="middle" font-family="Geist" font-size="14" fill="#222222"><tspan x="171.87" dy="0.00">retry with backoff</tspan></text></g><path id="edge-10" class="edgePath" data-edge-id="edge-10" d="M 247.580,838.660 L 191.320,838.660 Q 181.320,838.660 181.320,848.660 L 181.320,947.101 Q 181.320,957.101 191.320,957.101 L 247.580,957.101" fill="none" stroke="#6d6d6d" stroke-width="2"    stroke-linecap="round" stroke-linejoin="round" /><g transform="translate(247.58 957.10) rotate(0.00)"><polygon points="0,0 -7.50,3.90 -7.50,-3.90" fill="#6d6d6d" stroke="#6d6d6d" stroke-width="2" stroke-linejoin="round" stroke-linecap="round"/></g><rect data-edge-id="edge-10" data-label-kind="center" x="183.94" y="854.99" width="116.52" height="28.40" rx="2" ry="2" fill="#ffffff" fill-opacity="0.00" stroke="#cccccc" stroke-opacity="0.00" stroke-width="0.8"/><g class="edgeLabel" data-edge-id="edge-10" data-label-kind="center"><text x="242.20" y="872.69" text-anchor="middle" font-family="Geist" font-size="14" fill="#222222"><tspan x="242.20" dy="0.00">peer handoff</tspan></text></g><path id="edge-11" class="edgePath" data-edge-id="edge-11" d="M 263.580,998.101 L 207.320,998.101 Q 197.320,998.101 197.320,1008.101 L 197.320,1106.542 Q 197.320,1116.542 207.320,1116.542 L 263.580,1116.542" fill="none" stroke="#6d6d6d" stroke-width="2"    stroke-linecap="round" stroke-linejoin="round" /><g transform="translate(263.58 1116.54) rotate(0.00)"><polygon points="0,0 -7.50,3.90 -7.50,-3.90" fill="#6d6d6d" stroke="#6d6d6d" stroke-width="2" stroke-linejoin="round" stroke-linecap="round"/></g><rect data-edge-id="edge-11" data-label-kind="center" x="61.30" y="1028.89" width="116.52" height="28.40" rx="2" ry="2" fill="#ffffff" fill-opacity="0.00" stroke="#cccccc" stroke-opacity="0.00" stroke-width="0.8"/><g class="edgeLabel" data-edge-id="edge-11" data-label-kind="center"><text x="119.56" y="1046.59" text-anchor="middle" font-family="Geist" font-size="14" fill="#222222"><tspan x="119.56" dy="0.00">peer handoff</tspan></text></g><path id="edge-12" class="edgePath" data-edge-id="edge-12" d="M 198.220,1121.042 L 136.420,1121.042 Q 126.420,1121.042 126.420,1111.042 L 126.420,844.160 Q 126.420,834.160 136.420,834.160 L 198.220,834.160" fill="none" stroke="#6d6d6d" stroke-width="2"    stroke-linecap="round" stroke-linejoin="round" /><g transform="translate(198.22 834.16) rotate(0.00)"><polygon points="0,0 -7.50,3.90 -7.50,-3.90" fill="#6d6d6d" stroke="#6d6d6d" stroke-width="2" stroke-linejoin="round" stroke-linecap="round"/></g><rect data-edge-id="edge-12" data-label-kind="center" x="8.00" y="963.40" width="116.52" height="28.40" rx="2" ry="2" fill="#ffffff" fill-opacity="0.00" stroke="#cccccc" stroke-opacity="0.00" stroke-width="0.8"/><g class="edgeLabel" data-edge-id="edge-12" data-label-kind="center"><text x="66.26" y="981.10" text-anchor="middle" font-family="Geist" font-size="14" fill="#222222"><tspan x="66.26" dy="0.00">peer handoff</tspan></text></g><path id="edge-13" class="edgePath" data-edge-id="edge-13" d="M 198.220,802.160 L 148.220,802.160 Q 138.220,802.160 138.220,792.160 L 138.220,54.500 Q 138.220,44.500 148.220,44.500 L 178.620,44.500" fill="none" stroke="#6d6d6d" stroke-width="2"    stroke-linecap="round" stroke-linejoin="round" /><g transform="translate(178.62 44.50) rotate(0.00)"><polygon points="0,0 -7.50,3.90 -7.50,-3.90" fill="#6d6d6d" stroke="#6d6d6d" stroke-width="2" stroke-linejoin="round" stroke-linecap="round"/></g><rect data-edge-id="edge-13" data-label-kind="center" x="134.18" y="393.13" width="71.72" height="28.40" rx="2" ry="2" fill="#ffffff" fill-opacity="0.95" stroke="#cccccc" stroke-opacity="0.45" stroke-width="0.8"/><g class="edgeLabel" data-edge-id="edge-13" data-label-kind="center"><text x="170.04" y="410.83" text-anchor="middle" font-family="Geist" font-size="14" fill="#222222"><tspan x="170.04" dy="0.00">requeue</tspan></text></g><path id="edge-14" class="edgePath" data-edge-id="edge-14" d="M 296.940,961.601 L 413.068,961.601 Q 423.068,961.601 423.068,951.601 L 423.068,54.500 Q 423.068,44.500 413.068,44.500 L 316.540,44.500" fill="none" stroke="#6d6d6d" stroke-width="2"    stroke-linecap="round" stroke-linejoin="round" /><g transform="translate(316.54 44.50) rotate(180.00)"><polygon points="0,0 -7.50,3.90 -7.50,-3.90" fill="#6d6d6d" stroke="#6d6d6d" stroke-width="2" stroke-linejoin="round" stroke-linecap="round"/></g><rect data-edge-id="edge-14" data-label-kind="center" x="333.94" y="14.10" width="71.72" height="28.40" rx="2" ry="2" fill="#ffffff" fill-opacity="0.00" stroke="#cccccc" stroke-opacity="0.00" stroke-width="0.8"/><g class="edgeLabel" data-edge-id="edge-14" data-label-kind="center"><text x="369.80" y="31.80" text-anchor="middle" font-family="Geist" font-size="14" fill="#222222"><tspan x="369.80" dy="0.00">requeue</tspan></text></g><path id="edge-15" class="edgePath" data-edge-id="edge-15" d="M 198.220,1121.042 L 198.220,1125.992 Q 198.220,1130.042 194.170,1130.042 L 185.620,1130.042 L 185.620,1129.042 L 105.020,1129.042 Q 95.020,1129.042 95.020,1119.042 L 95.020,46.500 Q 95.020,36.500 105.020,36.500 L 158.370,36.500 Q 166.020,36.500 166.020,44.150 L 166.020,47.830 Q 166.020,53.500 171.690,53.500 L 174.570,53.500 Q 178.620,53.500 178.620,49.450 L 178.620,44.500" fill="none" stroke="#6d6d6d" stroke-width="2"    stroke-linecap="round" stroke-linejoin="round" /><g transform="translate(178.62 44.50) rotate(-90.00)"><polygon points="0,0 -7.50,3.90 -7.50,-3.90" fill="#6d6d6d" stroke="#6d6d6d" stroke-width="2" stroke-linejoin="round" stroke-linecap="round"/></g><rect data-edge-id="edge-15" data-label-kind="center" x="77.86" y="6.20" width="71.72" height="28.40" rx="2" ry="2" fill="#ffffff" fill-opacity="0.00" stroke="#cccccc" stroke-opacity="0.00" stroke-width="0.8"/><g class="edgeLabel" data-edge-id="edge-15" data-label-kind="center"><text x="113.72" y="23.90" text-anchor="middle" font-family="Geist" font-size="14" fill="#222222"><tspan x="113.72" dy="0.00">requeue</tspan></text></g><path id="edge-16" class="edgePath" data-edge-id="edge-16" d="M 359.189,1128.362 L 359.189,888.689 Q 359.189,879.740 350.241,879.740 L 344.974,879.740 Q 339.304,879.740 339.304,874.070 L 339.304,867.141" fill="none" stroke="#6d6d6d" stroke-width="2"    stroke-linecap="round" stroke-linejoin="round" /><g transform="translate(339.30 867.14) rotate(-90.00)"><polygon points="0,0 -7.50,3.90 -7.50,-3.90" fill="#6d6d6d" stroke="#6d6d6d" stroke-width="2" stroke-linejoin="round" stroke-linecap="round"/></g><path id="edge-17" class="edgePath" data-edge-id="edge-17" d="M 382.238,1148.862 L 428.639,1148.862 Q 438.639,1148.862 438.639,1138.862 L 438.639,58.000 Q 438.639,48.000 428.639,48.000 L 316.540,48.000" fill="none" stroke="#6d6d6d" stroke-width="2"    stroke-linecap="round" stroke-linejoin="round" /><g transform="translate(316.54 48.00) rotate(180.00)"><polygon points="0,0 -7.50,3.90 -7.50,-3.90" fill="#6d6d6d" stroke="#6d6d6d" stroke-width="2" stroke-linejoin="round" stroke-linecap="round"/></g><rect data-edge-id="edge-17" data-label-kind="center" x="387.13" y="1150.86" width="116.52" height="28.40" rx="2" ry="2" fill="#ffffff" fill-opacity="0.00" stroke="#cccccc" stroke-opacity="0.00" stroke-width="0.8"/><g class="edgeLabel" data-edge-id="edge-17" data-label-kind="center"><text x="445.39" y="1168.56" text-anchor="middle" font-family="Geist" font-size="14" fill="#222222"><tspan x="445.39" dy="0.00">late failure</tspan></text></g><rect x="198.22" y="797.66" width="98.72" height="41.00" rx="8" ry="8" fill="#ffffff" stroke="#cccccc" stroke-width="1" stroke-linejoin="round" stroke-linecap="round"/><text x="247.58" y="821.66" text-anchor="middle" font-family="Geist" font-size="14" fill="#222222"><tspan x="247.58" dy="0.00">Worker A</tspan></text><rect x="198.22" y="957.10" width="98.72" height="41.00" rx="8" ry="8" fill="#ffffff" stroke="#cccccc" stroke-width="1" stroke-linejoin="round" stroke-linecap="round"/><text x="247.58" y="981.10" text-anchor="middle" font-family="Geist" font-size="14" fill="#222222"><tspan x="247.58" dy="0.00">Worker B</tspan></text><rect x="198.22" y="1116.54" width="98.72" height="41.00" rx="8" ry="8" fill="#ffffff" stroke="#cccccc" stroke-width="1" stroke-linejoin="round" stroke-linecap="round"/><text x="247.58" y="1140.54" text-anchor="middle" font-family="Geist" font-size="14" fill="#222222"><tspan x="247.58" dy="0.00">Worker C</tspan></text><rect x="304.14" y="1128.36" width="78.10" height="41.00" rx="8" ry="8" fill="#ffffff" stroke="#cccccc" stroke-width="1" stroke-linejoin="round" stroke-linecap="round"/><text x="343.19" y="1152.36" text-anchor="middle" font-family="Geist" font-size="14" fill="#222222"><tspan x="343.19" dy="0.00">Merge</tspan></text><rect x="304.14" y="826.14" width="70.33" height="41.00" rx="8" ry="8" fill="#ffffff" stroke="#cccccc" stroke-width="1" stroke-linejoin="round" stroke-linecap="round"/><text x="339.30" y="850.14" text-anchor="middle" font-family="Geist" font-size="14" fill="#222222"><tspan x="339.30" dy="0.00">Done</tspan></text><polygon points="247.58,90.00 316.82,159.24 247.58,228.47 178.34,159.24" fill="#eae7fe" stroke="#9285f6" stroke-width="1" stroke-linejoin="round" stroke-linecap="round"/><text x="247.58" y="162.74" text-anchor="middle" font-family="Geist" font-size="14" fill="#222222"><tspan x="247.58" dy="0.00">Priority split</tspan></text><rect x="178.62" y="8.00" width="137.92" height="41.00" rx="8" ry="8" fill="#ffffff" stroke="#cccccc" stroke-width="1" stroke-linejoin="round" stroke-linecap="round"/><text x="247.58" y="32.00" text-anchor="middle" font-family="Geist" font-size="14" fill="#222222"><tspan x="247.58" dy="0.00">Ingress queue</tspan></text></svg>