<svg xmlns="http://www.w3.org/2000/svg" width="6509.4404" height="290.47903" viewBox="0 0 6509.4404 290.47903"><defs><marker id="arrow-0" viewBox="0 0 10 10" refX="5" refY="5" markerUnits="userSpaceOnUse" markerWidth="8" markerHeight="8" orient="auto"><path d="M 0 0 L 10 5 L 0 10 z" fill="#737373" stroke="#737373" stroke-width="1" stroke-dasharray="1,0"/></marker><marker id="arrow-start-0" viewBox="0 0 10 10" refX="4.5" refY="5" markerUnits="userSpaceOnUse" markerWidth="8" markerHeight="8" orient="auto"><path d="M 0 5 L 10 10 L 10 0 z" fill="#737373" stroke="#737373" stroke-width="1" stroke-dasharray="1,0"/></marker></defs><rect x="8.00" y="8.00" width="2061.44" height="176.43" rx="10" ry="10" fill="#161616" stroke="#303030" stroke-width="1" /><text x="1038.72" y="35.50" text-anchor="middle" font-family="Geist" font-size="14" fill="#e5e5e5"><tspan x="1038.72" dy="0.00">Group 1</tspan></text><rect x="2149.44" y="84.89" width="2132.00" height="152.20" rx="10" ry="10" fill="#161616" stroke="#303030" stroke-width="1" /><text x="3215.44" y="112.39" text-anchor="middle" font-family="Geist" font-size="14" fill="#e5e5e5"><tspan x="3215.44" dy="0.00">Group 2</tspan></text><rect x="4361.44" y="161.78" width="2132.00" height="112.70" rx="10" ry="10" fill="#161616" stroke="#303030" stroke-width="1" /><text x="5427.44" y="189.28" text-anchor="middle" font-family="Geist" font-size="14" fill="#e5e5e5"><tspan x="5427.44" dy="0.00">Group 3</tspan></text><path id="edge-0" class="edgePath" data-edge-id="edge-0" d="M 154.560,114.433 L 161.490,114.433 Q 167.160,114.433 166.838,108.772 L 166.282,99.025 Q 165.960,93.364 171.630,93.364 L 178.560,93.364" fill="none" stroke="#737373" stroke-width="2"    stroke-linecap="round" stroke-linejoin="round" /><g transform="translate(178.56 93.36) rotate(0.00)"><polygon points="0,0 -7.50,3.90 -7.50,-3.90" fill="#737373" stroke="#737373" stroke-width="2" stroke-linejoin="round" stroke-linecap="round"/></g><path id="edge-1" class="edgePath" data-edge-id="edge-1" d="M 285.120,71.921 L 309.120,71.921" fill="none" stroke="#737373" stroke-width="2"    stroke-linecap="round" stroke-linejoin="round" /><g transform="translate(309.12 71.92) rotate(0.00)"><polygon points="0,0 -7.50,3.90 -7.50,-3.90" fill="#737373" stroke="#737373" stroke-width="2" stroke-linejoin="round" stroke-linecap="round"/></g><path id="edge-2" class="edgePath" data-edge-id="edge-2" d="M 415.680,69.951 L 439.680,69.951" fill="none" stroke="#737373" stroke-width="2"    stroke-linecap="round" stroke-linejoin="round" /><g transform="translate(439.68 69.95) rotate(0.00)"><polygon points="0,0 -7.50,3.90 -7.50,-3.90" fill="#737373" stroke="#737373" stroke-width="2" stroke-linejoin="round" stroke-linecap="round"/></g><path id="edge-3" class="edgePath" data-edge-id="edge-3" d="M 546.240,69.887 L 570.240,69.887" fill="none" stroke="#737373" stroke-width="2"    stroke-linecap="round" stroke-linejoin="round" /><g transform="translate(570.24 69.89) rotate(0.00)"><polygon points="0,0 -7.50,3.90 -7.50,-3.90" fill="#737373" stroke="#737373" stroke-width="2" stroke-linejoin="round" stroke-linecap="round"/></g><path id="edge-4" class="edgePath" data-edge-id="edge-4" d="M 676.800,69.808 L 700.800,69.808" fill="none" stroke="#737373" stroke-width="2"    stroke-linecap="round" stroke-linejoin="round" /><g transform="translate(700.80 69.81) rotate(0.00)"><polygon points="0,0 -7.50,3.90 -7.50,-3.90" fill="#737373" stroke="#737373" stroke-width="2" stroke-linejoin="round" stroke-linecap="round"/></g><path id="edge-5" class="edgePath" data-edge-id="edge-5" d="M 807.360,69.717 L 831.360,69.717" fill="none" stroke="#737373" stroke-width="2"    stroke-linecap="round" stroke-linejoin="round" /><g transform="translate(831.36 69.72) rotate(0.00)"><polygon points="0,0 -7.50,3.90 -7.50,-3.90" fill="#737373" stroke="#737373" stroke-width="2" stroke-linejoin="round" stroke-linecap="round"/></g><path id="edge-6" class="edgePath" data-edge-id="edge-6" d="M 937.920,69.618 L 961.920,69.618" fill="none" stroke="#737373" stroke-width="2"    stroke-linecap="round" stroke-linejoin="round" /><g transform="translate(961.92 69.62) rotate(0.00)"><polygon points="0,0 -7.50,3.90 -7.50,-3.90" fill="#737373" stroke="#737373" stroke-width="2" stroke-linejoin="round" stroke-linecap="round"/></g><path id="edge-7" class="edgePath" data-edge-id="edge-7" d="M 1068.480,69.516 L 1092.480,69.516" fill="none" stroke="#737373" stroke-width="2"    stroke-linecap="round" stroke-linejoin="round" /><g transform="translate(1092.48 69.52) rotate(0.00)"><polygon points="0,0 -7.50,3.90 -7.50,-3.90" fill="#737373" stroke="#737373" stroke-width="2" stroke-linejoin="round" stroke-linecap="round"/></g><path id="edge-8" class="edgePath" data-edge-id="edge-8" d="M 1199.040,69.413 L 1223.040,69.413" fill="none" stroke="#737373" stroke-width="2"    stroke-linecap="round" stroke-linejoin="round" /><g transform="translate(1223.04 69.41) rotate(0.00)"><polygon points="0,0 -7.50,3.90 -7.50,-3.90" fill="#737373" stroke="#737373" stroke-width="2" stroke-linejoin="round" stroke-linecap="round"/></g><path id="edge-9" class="edgePath" data-edge-id="edge-9" d="M 1337.440,69.315 L 1361.440,69.315" fill="none" stroke="#737373" stroke-width="2"    stroke-linecap="round" stroke-linejoin="round" /><g transform="translate(1361.44 69.31) rotate(0.00)"><polygon points="0,0 -7.50,3.90 -7.50,-3.90" fill="#737373" stroke="#737373" stroke-width="2" stroke-linejoin="round" stroke-linecap="round"/></g><path id="edge-10" class="edgePath" data-edge-id="edge-10" d="M 1475.840,69.223 L 1499.840,69.223" fill="none" stroke="#737373" stroke-width="2"    stroke-linecap="round" stroke-linejoin="round" /><g transform="translate(1499.84 69.22) rotate(0.00)"><polygon points="0,0 -7.50,3.90 -7.50,-3.90" fill="#737373" stroke="#737373" stroke-width="2" stroke-linejoin="round" stroke-linecap="round"/></g><path id="edge-11" class="edgePath" data-edge-id="edge-11" d="M 1614.240,69.142 L 1638.240,69.142" fill="none" stroke="#737373" stroke-width="2"    stroke-linecap="round" stroke-linejoin="round" /><g transform="translate(1638.24 69.14) rotate(0.00)"><polygon points="0,0 -7.50,3.90 -7.50,-3.90" fill="#737373" stroke="#737373" stroke-width="2" stroke-linejoin="round" stroke-linecap="round"/></g><path id="edge-12" class="edgePath" data-edge-id="edge-12" d="M 1752.640,69.074 L 1776.640,69.074" fill="none" stroke="#737373" stroke-width="2"    stroke-linecap="round" stroke-linejoin="round" /><g transform="translate(1776.64 69.07) rotate(0.00)"><polygon points="0,0 -7.50,3.90 -7.50,-3.90" fill="#737373" stroke="#737373" stroke-width="2" stroke-linejoin="round" stroke-linecap="round"/></g><path id="edge-13" class="edgePath" data-edge-id="edge-13" d="M 1891.040,69.022 L 1915.040,69.022" fill="none" stroke="#737373" stroke-width="2"    stroke-linecap="round" stroke-linejoin="round" /><g transform="translate(1915.04 69.02) rotate(0.00)"><polygon points="0,0 -7.50,3.90 -7.50,-3.90" fill="#737373" stroke="#737373" stroke-width="2" stroke-linejoin="round" stroke-linecap="round"/></g><path id="edge-14" class="edgePath" data-edge-id="edge-14" d="M 2303.840,170.218 L 2313.302,170.218 Q 2316.440,170.218 2315.900,167.127 L 2315.780,166.440 Q 2315.240,163.349 2318.378,163.349 L 2327.840,163.349" fill="none" stroke="#737373" stroke-width="2"    stroke-linecap="round" stroke-linejoin="round" /><g transform="translate(2327.84 163.35) rotate(0.00)"><polygon points="0,0 -7.50,3.90 -7.50,-3.90" fill="#737373" stroke="#737373" stroke-width="2" stroke-linejoin="round" stroke-linecap="round"/></g><path id="edge-15" class="edgePath" data-edge-id="edge-15" d="M 2442.240,146.951 L 2466.240,146.951" fill="none" stroke="#737373" stroke-width="2"    stroke-linecap="round" stroke-linejoin="round" /><g transform="translate(2466.24 146.95) rotate(0.00)"><polygon points="0,0 -7.50,3.90 -7.50,-3.90" fill="#737373" stroke="#737373" stroke-width="2" stroke-linejoin="round" stroke-linecap="round"/></g><path id="edge-16" class="edgePath" data-edge-id="edge-16" d="M 2580.640,146.887 L 2604.640,146.887" fill="none" stroke="#737373" stroke-width="2"    stroke-linecap="round" stroke-linejoin="round" /><g transform="translate(2604.64 146.89) rotate(0.00)"><polygon points="0,0 -7.50,3.90 -7.50,-3.90" fill="#737373" stroke="#737373" stroke-width="2" stroke-linejoin="round" stroke-linecap="round"/></g><path id="edge-17" class="edgePath" data-edge-id="edge-17" d="M 2719.040,146.808 L 2743.040,146.808" fill="none" stroke="#737373" stroke-width="2"    stroke-linecap="round" stroke-linejoin="round" /><g transform="translate(2743.04 146.81) rotate(0.00)"><polygon points="0,0 -7.50,3.90 -7.50,-3.90" fill="#737373" stroke="#737373" stroke-width="2" stroke-linejoin="round" stroke-linecap="round"/></g><path id="edge-18" class="edgePath" data-edge-id="edge-18" d="M 2857.440,146.717 L 2881.440,146.717" fill="none" stroke="#737373" stroke-width="2"    stroke-linecap="round" stroke-linejoin="round" /><g transform="translate(2881.44 146.72) rotate(0.00)"><polygon points="0,0 -7.50,3.90 -7.50,-3.90" fill="#737373" stroke="#737373" stroke-width="2" stroke-linejoin="round" stroke-linecap="round"/></g><path id="edge-19" class="edgePath" data-edge-id="edge-19" d="M 2995.840,146.618 L 3019.840,146.618" fill="none" stroke="#737373" stroke-width="2"    stroke-linecap="round" stroke-linejoin="round" /><g transform="translate(3019.84 146.62) rotate(0.00)"><polygon points="0,0 -7.50,3.90 -7.50,-3.90" fill="#737373" stroke="#737373" stroke-width="2" stroke-linejoin="round" stroke-linecap="round"/></g><path id="edge-20" class="edgePath" data-edge-id="edge-20" d="M 3134.240,146.516 L 3158.240,146.516" fill="none" stroke="#737373" stroke-width="2"    stroke-linecap="round" stroke-linejoin="round" /><g transform="translate(3158.24 146.52) rotate(0.00)"><polygon points="0,0 -7.50,3.90 -7.50,-3.90" fill="#737373" stroke="#737373" stroke-width="2" stroke-linejoin="round" stroke-linecap="round"/></g><path id="edge-21" class="edgePath" data-edge-id="edge-21" d="M 3272.640,146.413 L 3296.640,146.413" fill="none" stroke="#737373" stroke-width="2"    stroke-linecap="round" stroke-linejoin="round" /><g transform="translate(3296.64 146.41) rotate(0.00)"><polygon points="0,0 -7.50,3.90 -7.50,-3.90" fill="#737373" stroke="#737373" stroke-width="2" stroke-linejoin="round" stroke-linecap="round"/></g><path id="edge-22" class="edgePath" data-edge-id="edge-22" d="M 3411.040,146.315 L 3435.040,146.315" fill="none" stroke="#737373" stroke-width="2"    stroke-linecap="round" stroke-linejoin="round" /><g transform="translate(3435.04 146.31) rotate(0.00)"><polygon points="0,0 -7.50,3.90 -7.50,-3.90" fill="#737373" stroke="#737373" stroke-width="2" stroke-linejoin="round" stroke-linecap="round"/></g><path id="edge-23" class="edgePath" data-edge-id="edge-23" d="M 3549.440,146.223 L 3573.440,146.223" fill="none" stroke="#737373" stroke-width="2"    stroke-linecap="round" stroke-linejoin="round" /><g transform="translate(3573.44 146.22) rotate(0.00)"><polygon points="0,0 -7.50,3.90 -7.50,-3.90" fill="#737373" stroke="#737373" stroke-width="2" stroke-linejoin="round" stroke-linecap="round"/></g><path id="edge-24" class="edgePath" data-edge-id="edge-24" d="M 3687.840,146.142 L 3711.840,146.142" fill="none" stroke="#737373" stroke-width="2"    stroke-linecap="round" stroke-linejoin="round" /><g transform="translate(3711.84 146.14) rotate(0.00)"><polygon points="0,0 -7.50,3.90 -7.50,-3.90" fill="#737373" stroke="#737373" stroke-width="2" stroke-linejoin="round" stroke-linecap="round"/></g><path id="edge-25" class="edgePath" data-edge-id="edge-25" d="M 3826.240,146.074 L 3850.240,146.074" fill="none" stroke="#737373" stroke-width="2"    stroke-linecap="round" stroke-linejoin="round" /><g transform="translate(3850.24 146.07) rotate(0.00)"><polygon points="0,0 -7.50,3.90 -7.50,-3.90" fill="#737373" stroke="#737373" stroke-width="2" stroke-linejoin="round" stroke-linecap="round"/></g><path id="edge-26" class="edgePath" data-edge-id="edge-26" d="M 3964.640,146.022 L 3988.640,146.022" fill="none" stroke="#737373" stroke-width="2"    stroke-linecap="round" stroke-linejoin="round" /><g transform="translate(3988.64 146.02) rotate(0.00)"><polygon points="0,0 -7.50,3.90 -7.50,-3.90" fill="#737373" stroke="#737373" stroke-width="2" stroke-linejoin="round" stroke-linecap="round"/></g><path id="edge-27" class="edgePath" data-edge-id="edge-27" d="M 4103.040,145.946 L 4127.041,145.946" fill="none" stroke="#737373" stroke-width="2"    stroke-linecap="round" stroke-linejoin="round" /><g transform="translate(4127.04 145.95) rotate(0.00)"><polygon points="0,0 -7.50,3.90 -7.50,-3.90" fill="#737373" stroke="#737373" stroke-width="2" stroke-linejoin="round" stroke-linecap="round"/></g><path id="edge-28" class="edgePath" data-edge-id="edge-28" d="M 4515.840,223.951 L 4539.840,223.951" fill="none" stroke="#737373" stroke-width="2"    stroke-linecap="round" stroke-linejoin="round" /><g transform="translate(4539.84 223.95) rotate(0.00)"><polygon points="0,0 -7.50,3.90 -7.50,-3.90" fill="#737373" stroke="#737373" stroke-width="2" stroke-linejoin="round" stroke-linecap="round"/></g><path id="edge-29" class="edgePath" data-edge-id="edge-29" d="M 4654.240,223.887 L 4678.240,223.887" fill="none" stroke="#737373" stroke-width="2"    stroke-linecap="round" stroke-linejoin="round" /><g transform="translate(4678.24 223.89) rotate(0.00)"><polygon points="0,0 -7.50,3.90 -7.50,-3.90" fill="#737373" stroke="#737373" stroke-width="2" stroke-linejoin="round" stroke-linecap="round"/></g><path id="edge-30" class="edgePath" data-edge-id="edge-30" d="M 4792.640,223.808 L 4816.641,223.808" fill="none" stroke="#737373" stroke-width="2"    stroke-linecap="round" stroke-linejoin="round" /><g transform="translate(4816.64 223.81) rotate(0.00)"><polygon points="0,0 -7.50,3.90 -7.50,-3.90" fill="#737373" stroke="#737373" stroke-width="2" stroke-linejoin="round" stroke-linecap="round"/></g><path id="edge-31" class="edgePath" data-edge-id="edge-31" d="M 4931.041,223.717 L 4955.041,223.717" fill="none" stroke="#737373" stroke-width="2"    stroke-linecap="round" stroke-linejoin="round" /><g transform="translate(4955.04 223.72) rotate(0.00)"><polygon points="0,0 -7.50,3.90 -7.50,-3.90" fill="#737373" stroke="#737373" stroke-width="2" stroke-linejoin="round" stroke-linecap="round"/></g><path id="edge-32" class="edgePath" data-edge-id="edge-32" d="M 5069.440,223.618 L 5093.440,223.618" fill="none" stroke="#737373" stroke-width="2"    stroke-linecap="round" stroke-linejoin="round" /><g transform="translate(5093.44 223.62) rotate(0.00)"><polygon points="0,0 -7.50,3.90 -7.50,-3.90" fill="#737373" stroke="#737373" stroke-width="2" stroke-linejoin="round" stroke-linecap="round"/></g><path id="edge-33" class="edgePath" data-edge-id="edge-33" d="M 5207.840,223.516 L 5231.840,223.516" fill="none" stroke="#737373" stroke-width="2"    stroke-linecap="round" stroke-linejoin="round" /><g transform="translate(5231.84 223.52) rotate(0.00)"><polygon points="0,0 -7.50,3.90 -7.50,-3.90" fill="#737373" stroke="#737373" stroke-width="2" stroke-linejoin="round" stroke-linecap="round"/></g><path id="edge-34" class="edgePath" data-edge-id="edge-34" d="M 5346.240,223.413 L 5370.240,223.413" fill="none" stroke="#737373" stroke-width="2"    stroke-linecap="round" stroke-linejoin="round" /><g transform="translate(5370.24 223.41) rotate(0.00)"><polygon points="0,0 -7.50,3.90 -7.50,-3.90" fill="#737373" stroke="#737373" stroke-width="2" stroke-linejoin="round" stroke-linecap="round"/></g><path id="edge-35" class="edgePath" data-edge-id="edge-35" d="M 5484.640,223.315 L 5508.641,223.315" fill="none" stroke="#737373" stroke-width="2"    stroke-linecap="round" stroke-linejoin="round" /><g transform="translate(5508.64 223.31) rotate(0.00)"><polygon points="0,0 -7.50,3.90 -7.50,-3.90" fill="#737373" stroke="#737373" stroke-width="2" stroke-linejoin="round" stroke-linecap="round"/></g><path id="edge-36" class="edgePath" data-edge-id="edge-36" d="M 5623.041,223.223 L 5647.041,223.223" fill="none" stroke="#737373" stroke-width="2"    stroke-linecap="round" stroke-linejoin="round" /><g transform="translate(5647.04 223.22) rotate(0.00)"><polygon points="0,0 -7.50,3.90 -7.50,-3.90" fill="#737373" stroke="#737373" stroke-width="2" stroke-linejoin="round" stroke-linecap="round"/></g><path id="edge-37" class="edgePath" data-edge-id="edge-37" d="M 5761.440,223.142 L 5785.440,223.142" fill="none" stroke="#737373" stroke-width="2"    stroke-linecap="round" stroke-linejoin="round" /><g transform="translate(5785.44 223.14) rotate(0.00)"><polygon points="0,0 -7.50,3.90 -7.50,-3.90" fill="#737373" stroke="#737373" stroke-width="2" stroke-linejoin="round" stroke-linecap="round"/></g><path id="edge-38" class="edgePath" data-edge-id="edge-38" d="M 5899.840,223.074 L 5923.841,223.074" fill="none" stroke="#737373" stroke-width="2"    stroke-linecap="round" stroke-linejoin="round" /><g transform="translate(5923.84 223.07) rotate(0.00)"><polygon points="0,0 -7.50,3.90 -7.50,-3.90" fill="#737373" stroke="#737373" stroke-width="2" stroke-linejoin="round" stroke-linecap="round"/></g><path id="edge-39" class="edgePath" data-edge-id="edge-39" d="M 6038.241,223.022 L 6062.241,223.022" fill="none" stroke="#737373" stroke-width="2"    stroke-linecap="round" stroke-linejoin="round" /><g transform="translate(6062.24 223.02) rotate(0.00)"><polygon points="0,0 -7.50,3.90 -7.50,-3.90" fill="#737373" stroke="#737373" stroke-width="2" stroke-linejoin="round" stroke-linecap="round"/></g><path id="edge-40" class="edgePath" data-edge-id="edge-40" d="M 6176.641,222.946 L 6200.641,222.946" fill="none" stroke="#737373" stroke-width="2"    stroke-linecap="round" stroke-linejoin="round" /><g transform="translate(6200.64 222.95) rotate(0.00)"><polygon points="0,0 -7.50,3.90 -7.50,-3.90" fill="#737373" stroke="#737373" stroke-width="2" stroke-linejoin="round" stroke-linecap="round"/></g><path id="edge-41" class="edgePath" data-edge-id="edge-41" d="M 6315.041,222.836 L 6339.041,222.836" fill="none" stroke="#737373" stroke-width="2"    stroke-linecap="round" stroke-linejoin="round" /><g transform="translate(6339.04 222.84) rotate(0.00)"><polygon points="0,0 -7.50,3.90 -7.50,-3.90" fill="#737373" stroke="#737373" stroke-width="2" stroke-linejoin="round" stroke-linecap="round"/></g><path id="edge-42" class="edgePath" data-edge-id="edge-42" d="M 154.560,133.933 L 161.490,133.933 Q 167.160,133.933 172.828,134.078 L 2171.172,185.219 Q 2176.840,185.364 2182.510,185.364 L 2189.440,185.364" fill="none" stroke="#737373" stroke-width="2"    stroke-linecap="round" stroke-linejoin="round" /><g transform="translate(2189.44 185.36) rotate(0.00)"><polygon points="0,0 -7.50,3.90 -7.50,-3.90" fill="#737373" stroke="#737373" stroke-width="2" stroke-linejoin="round" stroke-linecap="round"/></g><path id="edge-43" class="edgePath" data-edge-id="edge-43" d="M 2303.840,193.995 L 2310.770,193.995 Q 2316.440,193.995 2322.110,194.077 L 4383.171,223.897 Q 4388.840,223.979 4394.510,223.979 L 4401.440,223.979" fill="none" stroke="#737373" stroke-width="2"    stroke-linecap="round" stroke-linejoin="round" /><g transform="translate(4401.44 223.98) rotate(0.00)"><polygon points="0,0 -7.50,3.90 -7.50,-3.90" fill="#737373" stroke="#737373" stroke-width="2" stroke-linejoin="round" stroke-linecap="round"/></g><rect x="48.00" y="113.43" width="106.56" height="41.00" rx="8" ry="8" fill="#1d1d1d" stroke="#303030" stroke-width="1" stroke-linejoin="round" stroke-linecap="round"/><text x="101.28" y="137.43" text-anchor="middle" font-family="Geist" font-size="14" fill="#e5e5e5"><tspan x="101.28" dy="0.00">Service 1</tspan></text><rect x="1223.04" y="48.86" width="114.40" height="41.00" rx="8" ry="8" fill="#1d1d1d" stroke="#303030" stroke-width="1" stroke-linejoin="round" stroke-linecap="round"/><text x="1280.24" y="72.86" text-anchor="middle" font-family="Geist" font-size="14" fill="#e5e5e5"><tspan x="1280.24" dy="0.00">Service 10</tspan></text><rect x="1361.44" y="48.77" width="114.40" height="41.00" rx="8" ry="8" fill="#1d1d1d" stroke="#303030" stroke-width="1" stroke-linejoin="round" stroke-linecap="round"/><text x="1418.64" y="72.77" text-anchor="middle" font-family="Geist" font-size="14" fill="#e5e5e5"><tspan x="1418.64" dy="0.00">Service 11</tspan></text><rect x="1499.84" y="48.68" width="114.40" height="41.00" rx="8" ry="8" fill="#1d1d1d" stroke="#303030" stroke-width="1" stroke-linejoin="round" stroke-linecap="round"/><text x="1557.04" y="72.68" text-anchor="middle" font-family="Geist" font-size="14" fill="#e5e5e5"><tspan x="1557.04" dy="0.00">Service 12</tspan></text><rect x="1638.24" y="48.60" width="114.40" height="41.00" rx="8" ry="8" fill="#1d1d1d" stroke="#303030" stroke-width="1" stroke-linejoin="round" stroke-linecap="round"/><text x="1695.44" y="72.60" text-anchor="middle" font-family="Geist" font-size="14" fill="#e5e5e5"><tspan x="1695.44" dy="0.00">Service 13</tspan></text><rect x="1776.64" y="48.54" width="114.40" height="41.00" rx="8" ry="8" fill="#1d1d1d" stroke="#303030" stroke-width="1" stroke-linejoin="round" stroke-linecap="round"/><text x="1833.84" y="72.54" text-anchor="middle" font-family="Geist" font-size="14" fill="#e5e5e5"><tspan x="1833.84" dy="0.00">Service 14</tspan></text><rect x="1915.04" y="48.50" width="114.40" height="41.00" rx="8" ry="8" fill="#1d1d1d" stroke="#303030" stroke-width="1" stroke-linejoin="round" stroke-linecap="round"/><text x="1972.24" y="72.50" text-anchor="middle" font-family="Geist" font-size="14" fill="#e5e5e5"><tspan x="1972.24" dy="0.00">Service 15</tspan></text><rect x="2189.44" y="166.09" width="114.40" height="41.00" rx="8" ry="8" fill="#1d1d1d" stroke="#303030" stroke-width="1" stroke-linejoin="round" stroke-linecap="round"/><text x="2246.64" y="190.09" text-anchor="middle" font-family="Geist" font-size="14" fill="#e5e5e5"><tspan x="2246.64" dy="0.00">Service 16</tspan></text><rect x="2327.84" y="126.48" width="114.40" height="41.00" rx="8" ry="8" fill="#1d1d1d" stroke="#303030" stroke-width="1" stroke-linejoin="round" stroke-linecap="round"/><text x="2385.04" y="150.48" text-anchor="middle" font-family="Geist" font-size="14" fill="#e5e5e5"><tspan x="2385.04" dy="0.00">Service 17</tspan></text><rect x="2466.24" y="126.42" width="114.40" height="41.00" rx="8" ry="8" fill="#1d1d1d" stroke="#303030" stroke-width="1" stroke-linejoin="round" stroke-linecap="round"/><text x="2523.44" y="150.42" text-anchor="middle" font-family="Geist" font-size="14" fill="#e5e5e5"><tspan x="2523.44" dy="0.00">Service 18</tspan></text><rect x="2604.64" y="126.35" width="114.40" height="41.00" rx="8" ry="8" fill="#1d1d1d" stroke="#303030" stroke-width="1" stroke-linejoin="round" stroke-linecap="round"/><text x="2661.84" y="150.35" text-anchor="middle" font-family="Geist" font-size="14" fill="#e5e5e5"><tspan x="2661.84" dy="0.00">Service 19</tspan></text><rect x="178.56" y="53.36" width="106.56" height="41.00" rx="8" ry="8" fill="#1d1d1d" stroke="#303030" stroke-width="1" stroke-linejoin="round" stroke-linecap="round"/><text x="231.84" y="77.36" text-anchor="middle" font-family="Geist" font-size="14" fill="#e5e5e5"><tspan x="231.84" dy="0.00">Service 2</tspan></text><rect x="2743.04" y="126.26" width="114.40" height="41.00" rx="8" ry="8" fill="#1d1d1d" stroke="#303030" stroke-width="1" stroke-linejoin="round" stroke-linecap="round"/><text x="2800.24" y="150.26" text-anchor="middle" font-family="Geist" font-size="14" fill="#e5e5e5"><tspan x="2800.24" dy="0.00">Service 20</tspan></text><rect x="2881.44" y="126.17" width="114.40" height="41.00" rx="8" ry="8" fill="#1d1d1d" stroke="#303030" stroke-width="1" stroke-linejoin="round" stroke-linecap="round"/><text x="2938.64" y="150.17" text-anchor="middle" font-family="Geist" font-size="14" fill="#e5e5e5"><tspan x="2938.64" dy="0.00">Service 21</tspan></text><rect x="3019.84" y="126.07" width="114.40" height="41.00" rx="8" ry="8" fill="#1d1d1d" stroke="#303030" stroke-width="1" stroke-linejoin="round" stroke-linecap="round"/><text x="3077.04" y="150.07" text-anchor="middle" font-family="Geist" font-size="14" fill="#e5e5e5"><tspan x="3077.04" dy="0.00">Service 22</tspan></text><rect x="3158.24" y="125.96" width="114.40" height="41.00" rx="8" ry="8" fill="#1d1d1d" stroke="#303030" stroke-width="1" stroke-linejoin="round" stroke-linecap="round"/><text x="3215.44" y="149.96" text-anchor="middle" font-family="Geist" font-size="14" fill="#e5e5e5"><tspan x="3215.44" dy="0.00">Service 23</tspan></text><rect x="3296.64" y="125.86" width="114.40" height="41.00" rx="8" ry="8" fill="#1d1d1d" stroke="#303030" stroke-width="1" stroke-linejoin="round" stroke-linecap="round"/><text x="3353.84" y="149.86" text-anchor="middle" font-family="Geist" font-size="14" fill="#e5e5e5"><tspan x="3353.84" dy="0.00">Service 24</tspan></text><rect x="3435.04" y="125.77" width="114.40" height="41.00" rx="8" ry="8" fill="#1d1d1d" stroke="#303030" stroke-width="1" stroke-linejoin="round" stroke-linecap="round"/><text x="3492.24" y="149.77" text-anchor="middle" font-family="Geist" font-size="14" fill="#e5e5e5"><tspan x="3492.24" dy="0.00">Service 25</tspan></text><rect x="3573.44" y="125.68" width="114.40" height="41.00" rx="8" ry="8" fill="#1d1d1d" stroke="#303030" stroke-width="1" stroke-linejoin="round" stroke-linecap="round"/><text x="3630.64" y="149.68" text-anchor="middle" font-family="Geist" font-size="14" fill="#e5e5e5"><tspan x="3630.64" dy="0.00">Service 26</tspan></text><rect x="3711.84" y="125.60" width="114.40" height="41.00" rx="8" ry="8" fill="#1d1d1d" stroke="#303030" stroke-width="1" stroke-linejoin="round" stroke-linecap="round"/><text x="3769.04" y="149.60" text-anchor="middle" font-family="Geist" font-size="14" fill="#e5e5e5"><tspan x="3769.04" dy="0.00">Service 27</tspan></text><rect x="3850.24" y="125.54" width="114.40" height="41.00" rx="8" ry="8" fill="#1d1d1d" stroke="#303030" stroke-width="1" stroke-linejoin="round" stroke-linecap="round"/><text x="3907.44" y="149.54" text-anchor="middle" font-family="Geist" font-size="14" fill="#e5e5e5"><tspan x="3907.44" dy="0.00">Service 28</tspan></text><rect x="3988.64" y="125.50" width="114.40" height="41.00" rx="8" ry="8" fill="#1d1d1d" stroke="#303030" stroke-width="1" stroke-linejoin="round" stroke-linecap="round"/><text x="4045.84" y="149.50" text-anchor="middle" font-family="Geist" font-size="14" fill="#e5e5e5"><tspan x="4045.84" dy="0.00">Service 29</tspan></text><rect x="309.12" y="49.48" width="106.56" height="41.00" rx="8" ry="8" fill="#1d1d1d" stroke="#303030" stroke-width="1" stroke-linejoin="round" stroke-linecap="round"/><text x="362.40" y="73.48" text-anchor="middle" font-family="Geist" font-size="14" fill="#e5e5e5"><tspan x="362.40" dy="0.00">Service 3</tspan></text><rect x="4127.04" y="125.39" width="114.40" height="41.00" rx="8" ry="8" fill="#1d1d1d" stroke="#303030" stroke-width="1" stroke-linejoin="round" stroke-linecap="round"/><text x="4184.24" y="149.39" text-anchor="middle" font-family="Geist" font-size="14" fill="#e5e5e5"><tspan x="4184.24" dy="0.00">Service 30</tspan></text><rect x="4401.44" y="203.48" width="114.40" height="41.00" rx="8" ry="8" fill="#1d1d1d" stroke="#303030" stroke-width="1" stroke-linejoin="round" stroke-linecap="round"/><text x="4458.64" y="227.48" text-anchor="middle" font-family="Geist" font-size="14" fill="#e5e5e5"><tspan x="4458.64" dy="0.00">Service 31</tspan></text><rect x="4539.84" y="203.42" width="114.40" height="41.00" rx="8" ry="8" fill="#1d1d1d" stroke="#303030" stroke-width="1" stroke-linejoin="round" stroke-linecap="round"/><text x="4597.04" y="227.42" text-anchor="middle" font-family="Geist" font-size="14" fill="#e5e5e5"><tspan x="4597.04" dy="0.00">Service 32</tspan></text><rect x="4678.24" y="203.35" width="114.40" height="41.00" rx="8" ry="8" fill="#1d1d1d" stroke="#303030" stroke-width="1" stroke-linejoin="round" stroke-linecap="round"/><text x="4735.44" y="227.35" text-anchor="middle" font-family="Geist" font-size="14" fill="#e5e5e5"><tspan x="4735.44" dy="0.00">Service 33</tspan></text><rect x="4816.64" y="203.26" width="114.40" height="41.00" rx="8" ry="8" fill="#1d1d1d" stroke="#303030" stroke-width="1" stroke-linejoin="round" stroke-linecap="round"/><text x="4873.84" y="227.26" text-anchor="middle" font-family="Geist" font-size="14" fill="#e5e5e5"><tspan x="4873.84" dy="0.00">Service 34</tspan></text><rect x="4955.04" y="203.17" width="114.40" height="41.00" rx="8" ry="8" fill="#1d1d1d" stroke="#303030" stroke-width="1" stroke-linejoin="round" stroke-linecap="round"/><text x="5012.24" y="227.17" text-anchor="middle" font-family="Geist" font-size="14" fill="#e5e5e5"><tspan x="5012.24" dy="0.00">Service 35</tspan></text><rect x="5093.44" y="203.07" width="114.40" height="41.00" rx="8" ry="8" fill="#1d1d1d" stroke="#303030" stroke-width="1" stroke-linejoin="round" stroke-linecap="round"/><text x="5150.64" y="227.07" text-anchor="middle" font-family="Geist" font-size="14" fill="#e5e5e5"><tspan x="5150.64" dy="0.00">Service 36</tspan></text><rect x="5231.84" y="202.96" width="114.40" height="41.00" rx="8" ry="8" fill="#1d1d1d" stroke="#303030" stroke-width="1" stroke-linejoin="round" stroke-linecap="round"/><text x="5289.04" y="226.96" text-anchor="middle" font-family="Geist" font-size="14" fill="#e5e5e5"><tspan x="5289.04" dy="0.00">Service 37</tspan></text><rect x="5370.24" y="202.86" width="114.40" height="41.00" rx="8" ry="8" fill="#1d1d1d" stroke="#303030" stroke-width="1" stroke-linejoin="round" stroke-linecap="round"/><text x="5427.44" y="226.86" text-anchor="middle" font-family="Geist" font-size="14" fill="#e5e5e5"><tspan x="5427.44" dy="0.00">Service 38</tspan></text><rect x="5508.64" y="202.77" width="114.40" height="41.00" rx="8" ry="8" fill="#1d1d1d" stroke="#303030" stroke-width="1" stroke-linejoin="round" stroke-linecap="round"/><text x="5565.84" y="226.77" text-anchor="middle" font-family="Geist" font-size="14" fill="#e5e5e5"><tspan x="5565.84" dy="0.00">Service 39</tspan></text><rect x="439.68" y="49.42" width="106.56" height="41.00" rx="8" ry="8" fill="#1d1d1d" stroke="#303030" stroke-width="1" stroke-linejoin="round" stroke-linecap="round"/><text x="492.96" y="73.42" text-anchor="middle" font-family="Geist" font-size="14" fill="#e5e5e5"><tspan x="492.96" dy="0.00">Service 4</tspan></text><rect x="5647.04" y="202.68" width="114.40" height="41.00" rx="8" ry="8" fill="#1d1d1d" stroke="#303030" stroke-width="1" stroke-linejoin="round" stroke-linecap="round"/><text x="5704.24" y="226.68" text-anchor="middle" font-family="Geist" font-size="14" fill="#e5e5e5"><tspan x="5704.24" dy="0.00">Service 40</tspan></text><rect x="5785.44" y="202.60" width="114.40" height="41.00" rx="8" ry="8" fill="#1d1d1d" stroke="#303030" stroke-width="1" stroke-linejoin="round" stroke-linecap="round"/><text x="5842.64" y="226.60" text-anchor="middle" font-family="Geist" font-size="14" fill="#e5e5e5"><tspan x="5842.64" dy="0.00">Service 41</tspan></text><rect x="5923.84" y="202.54" width="114.40" height="41.00" rx="8" ry="8" fill="#1d1d1d" stroke="#303030" stroke-width="1" stroke-linejoin="round" stroke-linecap="round"/><text x="5981.04" y="226.54" text-anchor="middle" font-family="Geist" font-size="14" fill="#e5e5e5"><tspan x="5981.04" dy="0.00">Service 42</tspan></text><rect x="6062.24" y="202.50" width="114.40" height="41.00" rx="8" ry="8" fill="#1d1d1d" stroke="#303030" stroke-width="1" stroke-linejoin="round" stroke-linecap="round"/><text x="6119.44" y="226.50" text-anchor="middle" font-family="Geist" font-size="14" fill="#e5e5e5"><tspan x="6119.44" dy="0.00">Service 43</tspan></text><rect x="6200.64" y="202.39" width="114.40" height="41.00" rx="8" ry="8" fill="#1d1d1d" stroke="#303030" stroke-width="1" stroke-linejoin="round" stroke-linecap="round"/><text x="6257.84" y="226.39" text-anchor="middle" font-family="Geist" font-size="14" fill="#e5e5e5"><tspan x="6257.84" dy="0.00">Service 44</tspan></text><rect x="6339.04" y="202.28" width="114.40" height="41.00" rx="8" ry="8" fill="#1d1d1d" stroke="#303030" stroke-width="1" stroke-linejoin="round" stroke-linecap="round"/><text x="6396.24" y="226.28" text-anchor="middle" font-family="Geist" font-size="14" fill="#e5e5e5"><tspan x="6396.24" dy="0.00">Service 45</tspan></text><rect x="570.24" y="49.35" width="106.56" height="41.00" rx="8" ry="8" fill="#1d1d1d" stroke="#303030" stroke-width="1" stroke-linejoin="round" stroke-linecap="round"/><text x="623.52" y="73.35" text-anchor="middle" font-family="Geist" font-size="14" fill="#e5e5e5"><tspan x="623.52" dy="0.00">Service 5</tspan></text><rect x="700.80" y="49.26" width="106.56" height="41.00" rx="8" ry="8" fill="#1d1d1d" stroke="#303030" stroke-width="1" stroke-linejoin="round" stroke-linecap="round"/><text x="754.08" y="73.26" text-anchor="middle" font-family="Geist" font-size="14" fill="#e5e5e5"><tspan x="754.08" dy="0.00">Service 6</tspan></text><rect x="831.36" y="49.17" width="106.56" height="41.00" rx="8" ry="8" fill="#1d1d1d" stroke="#303030" stroke-width="1" stroke-linejoin="round" stroke-linecap="round"/><text x="884.64" y="73.17" text-anchor="middle" font-family="Geist" font-size="14" fill="#e5e5e5"><tspan x="884.64" dy="0.00">Service 7</tspan></text><rect x="961.92" y="49.07" width="106.56" height="41.00" rx="8" ry="8" fill="#1d1d1d" stroke="#303030" stroke-width="1" stroke-linejoin="round" stroke-linecap="round"/><text x="1015.20" y="73.07" text-anchor="middle" font-family="Geist" font-size="14" fill="#e5e5e5"><tspan x="1015.20" dy="0.00">Service 8</tspan></text><rect x="1092.48" y="48.96" width="106.56" height="41.00" rx="8" ry="8" fill="#1d1d1d" stroke="#303030" stroke-width="1" stroke-linejoin="round" stroke-linecap="round"/><text x="1145.76" y="72.96" text-anchor="middle" font-family="Geist" font-size="14" fill="#e5e5e5"><tspan x="1145.76" dy="0.00">Service 9</tspan></text></svg>