<svg xmlns="http://www.w3.org/2000/svg" width="114.880005" height="205.59467" viewBox="0 0 114.880005 205.59467"><defs><marker id="arrow-0" viewBox="0 0 10 10" refX="5" refY="5" markerUnits="userSpaceOnUse" markerWidth="8" markerHeight="8" orient="auto"><path d="M 0 0 L 10 5 L 0 10 z" fill="#737373" stroke="#737373" stroke-width="1" stroke-dasharray="1,0"/></marker><marker id="arrow-start-0" viewBox="0 0 10 10" refX="4.5" refY="5" markerUnits="userSpaceOnUse" markerWidth="8" markerHeight="8" orient="auto"><path d="M 0 5 L 10 10 L 10 0 z" fill="#737373" stroke="#737373" stroke-width="1" stroke-dasharray="1,0"/></marker></defs><path id="edge-0" class="edgePath" data-edge-id="edge-0" d="M 53.226,49.000 L 53.226,78.297" fill="none" stroke="#737373" stroke-width="2"    stroke-linecap="round" stroke-linejoin="round" /><g transform="translate(53.23 78.30) rotate(90.00)"><polygon points="0,0 -7.50,3.90 -7.50,-3.90" fill="#737373" stroke="#737373" stroke-width="2" stroke-linejoin="round" stroke-linecap="round"/></g><path id="edge-1" class="edgePath" data-edge-id="edge-1" d="M 52.917,119.297 L 52.917,148.595" fill="none" stroke="#737373" stroke-width="2"    stroke-linecap="round" stroke-linejoin="round" /><g transform="translate(52.92 148.59) rotate(90.00)"><polygon points="0,0 -7.50,3.90 -7.50,-3.90" fill="#737373" stroke="#737373" stroke-width="2" stroke-linejoin="round" stroke-linecap="round"/></g><rect x="8.00" y="8.00" width="90.88" height="41.00" rx="8" ry="8" fill="#1d1d1d" stroke="#303030" stroke-width="1" stroke-linejoin="round" stroke-linecap="round"/><text x="53.44" y="32.00" text-anchor="middle" font-family="Geist" font-size="14" fill="#e5e5e5"><tspan x="53.44" dy="0.00">Request</tspan></text><rect x="19.33" y="78.30" width="67.36" height="41.00" rx="8" ry="8" fill="#1d1d1d" stroke="#303030" stroke-width="1" stroke-linejoin="round" stroke-linecap="round"/><text x="53.01" y="102.30" text-anchor="middle" font-family="Geist" font-size="14" fill="#e5e5e5"><tspan x="53.01" dy="0.00">Plan</tspan></text><rect x="17.66" y="148.59" width="70.33" height="41.00" rx="8" ry="8" fill="#1d1d1d" stroke="#303030" stroke-width="1" stroke-linejoin="round" stroke-linecap="round"/><text x="52.82" y="172.59" text-anchor="middle" font-family="Geist" font-size="14" fill="#e5e5e5"><tspan x="52.82" dy="0.00">Done</tspan></text></svg>